<?xml version="1.0" encoding="utf-8"?>
<!-- Generator: Adobe Illustrator 27.5.0, SVG Export Plug-In . SVG Version: 6.00 Build 0)  -->
<svg version="1.1" id="Layer_1" xmlns="http://www.w3.org/2000/svg" xmlns:xlink="http://www.w3.org/1999/xlink" x="0px" y="0px"
	 viewBox="0 0 400 400" style="enable-background:new 0 0 400 400;" xml:space="preserve">
<style type="text/css">
	.st0{fill-rule:evenodd;clip-rule:evenodd;fill:#212061;}
	.st1{fill-rule:evenodd;clip-rule:evenodd;fill:#F9B617;}
	.st2{fill-rule:evenodd;clip-rule:evenodd;fill:#006535;}
	.st3{fill-rule:evenodd;clip-rule:evenodd;fill:#FFFFFF;}
</style>
<g>
	<polygon class="st0" points="0.16,334.97 374.79,334.97 50.19,11.96 0,11.96 	"/>
	<path class="st1" d="M145.59,334.97h229.2L233.02,193.89c-3.61,1.44-7.38,3.06-12.25,5.8c-7.43,4.19-18.1,11.23-25.23,17.85
		c-8.44,7.83-12.5,15.76-8.46,27.56c1.36,3.97,3.59,7.57,5.8,10.42c2.21,2.86,4.41,4.97,6.73,7.5c2.32,2.53,4.77,5.47,6.51,8.43
		c7.5,12.75,0.66,24.11-8.99,33.04c-10.13,9.37-26.18,19.37-38.65,25.34c-3.82,1.83-6.87,2.98-10.48,4.27L145.59,334.97z"/>
	<path class="st2" d="M160.13,334.97h214.66L239.48,200.32c-6.04,3.18-12.83,8.55-17.35,13.26c-6.99,7.29-11.36,15.38-6.52,25.21
		c1.02,2.08,2.24,3.5,3.72,4.96c5.65,5.63,9.99,6.08,15.96,10.13c4.99,3.39,9.37,8.38,10.22,14.54c0.8,5.88-1.46,11.6-5,16.21
		c-1.77,2.31-3.91,4.5-6.36,6.81c-2.44,2.31-5.19,4.72-8.83,7.42c-3.64,2.69-8.17,5.66-14.3,9.5c-12.43,7.8-24.82,15.24-38.21,21.3
		C168.21,331.75,163.37,333.68,160.13,334.97z"/>
	<polygon class="st3" points="16.91,87.27 40.89,98.06 46.58,77.87 55.48,104.41 75.75,113.31 60.67,119.73 68.17,142.89 
		50.62,124.02 32.57,131.1 38.01,110.09 	"/>
	<polygon class="st3" points="148.36,145.86 151.66,132.67 154.83,149.07 163.85,153.11 157.05,158.13 159.74,173.96 151.78,162.21 
		143.26,168.68 146.26,153.98 137.73,141.41 	"/>
	<polygon class="st3" points="91.96,169.55 107.2,173.3 110.75,158.76 115.2,175.4 128.79,179.27 118.58,186.94 123.27,203.83 
		112.07,191.72 101.19,200.21 104.86,183.64 	"/>
	<polygon class="st3" points="56.44,194.15 63.94,213.67 82.32,215.4 68.72,226.28 75.81,243.91 59.9,232.63 44.9,244.16 
		49.27,224.39 31.06,210.21 51.91,212.27 	"/>
	<polygon class="st3" points="149.28,221.87 152.04,209.14 155.25,222.82 163.49,223.48 157.31,230.98 159.99,243.96 152.62,235.92 
		144.29,244.12 147.13,230.11 139.51,221.26 	"/>
	<g>
		<rect x="65.67" y="345.74" class="st0" width="5.43" height="41.63"/>
		<rect x="295.38" y="345.74" class="st0" width="5.43" height="41.63"/>
		<path class="st0" d="M276.69,358.89h4.62l0.37,3.65c1.16-1.6,4.29-4.82,10.44-4.22v5.65c0,0-5.9-0.74-9.99,2.86v20.54h-5.43
			V358.89z"/>
		<path class="st0" d="M264.13,358.89h5.43v28.48h-5.43V358.89L264.13,358.89z M270.78,350.21c0.02-2.38-1.41-3.89-3.81-3.89
			c-2.4,0-3.8,1.45-3.8,3.85c0,2.4,1.5,3.85,3.8,3.85C269.28,354.02,270.76,352.59,270.78,350.21z"/>
		<path class="st0" d="M307.96,358.89h5.43v28.48h-5.43V358.89L307.96,358.89z M314.61,350.21c0.02-2.38-1.41-3.89-3.81-3.89
			c-2.4,0-3.8,1.45-3.8,3.85c0,2.4,1.5,3.85,3.8,3.85C313.1,354.02,314.59,352.59,314.61,350.21z"/>
		<path class="st0" d="M24.68,357.81h5.1c-0.44-7.66-4.76-10.4-10.8-11.03c-3.72-0.39-7.86,0.27-10.79,2.05
			c-2.77,1.68-4.62,4.27-5.02,7.41c-0.24,1.88-0.18,4.29,0.88,6.45c1.51,3.06,4.47,4.92,8.01,5.95c0,0,8.1,2.03,9.35,3.08
			c1.25,1.05,3.62,1.99,3.16,6.04c-0.29,2.51-1.7,3.8-3.13,4.49c-3.03,1.47-8.85,1.58-11.71-0.5c-1.42-1.03-2.59-2.72-3.19-5.47
			H1.31c0.8,6.99,4.16,10.25,10.08,11.33c4.62,0.84,10.58,0.63,14.51-2.28c1.65-1.22,2.9-2.82,3.56-4.63
			c0.75-2.04,0.87-4.37,0.61-6.27c-0.76-5.62-5.18-7.61-9.94-9.08c-3.67-1.13-9.03-1.91-10.8-5.45c-1-2-0.75-4.77,0.83-6.4
			c1.61-1.65,4.61-2.05,6.79-2.04C20.82,351.48,24.17,352.61,24.68,357.81z"/>
		<path class="st0" d="M60.15,373.05c0-5.76-1.45-10.82-5.82-13.26c-3.96-2.21-10.19-1.98-14.19,0.08
			c-4.43,2.28-6.31,6.72-6.63,12.68c-0.45,8.34,3.26,15.76,13.3,15.48C56.85,387.75,60.15,381.26,60.15,373.05L60.15,373.05z
			 M54.47,373.07c0,5.69-1.47,10.42-7.59,10.49c-6.11,0.07-7.99-5.22-7.74-10.99c0.18-4.12,1.08-6.95,3.61-8.52
			c2.28-1.42,6.42-1.66,8.68-0.13C53.92,365.6,54.47,369.08,54.47,373.07z"/>
		<path class="st0" d="M103.07,373.05c0-5.76-1.45-10.82-5.82-13.26c-3.96-2.21-10.19-1.98-14.19,0.08
			c-4.43,2.28-6.31,6.72-6.63,12.68c-0.45,8.34,3.26,15.76,13.3,15.48C99.77,387.75,103.07,381.26,103.07,373.05L103.07,373.05z
			 M97.4,373.07c0,5.69-1.47,10.42-7.59,10.49c-6.11,0.07-7.99-5.22-7.74-10.99c0.18-4.12,1.08-6.95,3.61-8.52
			c2.28-1.42,6.42-1.66,8.68-0.13C96.84,365.6,97.4,369.08,97.4,373.07z"/>
		<path class="st0" d="M180.89,373.05c0-5.76-1.45-10.82-5.82-13.26c-3.96-2.21-10.19-1.98-14.19,0.08
			c-4.43,2.28-6.31,6.72-6.63,12.68c-0.45,8.34,3.26,15.76,13.3,15.48C177.59,387.75,180.89,381.26,180.89,373.05L180.89,373.05z
			 M175.21,373.07c0,5.69-1.47,10.42-7.59,10.49c-6.11,0.07-7.99-5.22-7.74-10.99c0.18-4.12,1.08-6.95,3.61-8.52
			c2.28-1.42,6.42-1.66,8.68-0.13C174.65,365.6,175.21,369.08,175.21,373.07z"/>
		<path class="st0" d="M125.81,387.38v-6.72v-10.7c0-1.64-0.15-2.79-0.67-3.77c-1.18-2.22-3.64-3.07-6.19-3.04
			c-3.18,0.04-6.06,2.31-6.06,6.81v10v7.42h-5.49V368.5c0-6.94,5.35-10.48,11.24-10.55c4.03-0.05,7.7,1.17,10.02,3.63
			c2.11-2.38,5.36-3.6,8.79-3.63c6.82-0.08,12.6,3.45,12.6,10.55v18.88h-5.39v-6.72v-10.7c0-1.64-0.19-2.79-0.71-3.77
			c-1.18-2.22-3.5-3.21-6.04-3c-1.61,0.13-3.59,0.73-4.81,2.12c-0.9,1.02-1.3,2.42-1.3,4.65v17.41
			C129.81,387.38,127.81,387.38,125.81,387.38z"/>
		<path class="st0" d="M259.39,387.38l-13.79-39.92h-7.01l-13.46,39.92h5.63c1.28-3.92,2.54-7.84,3.81-11.76h14.9
			c1.28,3.9,2.57,7.8,3.89,11.76H259.39L259.39,387.38z M236.09,370.89c1.91-5.9,3.84-11.81,5.85-17.74
			c2.11,6.13,4.05,11.97,5.96,17.74H236.09z"/>
		<path class="st0" d="M364.51,358.37c-2.46-0.38-5.35-0.08-8.42,1.49c-4.43,2.28-6.47,5.94-6.79,12.44
			c-0.41,8.35,3.42,15.99,13.46,15.72c7.2-0.2,10.13-3.69,11.22-8.68h-5.2c-0.38,2.39-1.23,4-5.92,4.06
			c-4.7,0.06-7.33-2.11-7.85-8.92c6.53,0,12.38,0,18.91,0C374.67,366.01,373.19,359.72,364.51,358.37L364.51,358.37z M355.06,370.19
			c0.33-2.81,1.25-5.01,3.26-6.27c2.56-1.6,5.28-1.29,6.97-0.57c2.39,1.02,3.2,3.8,3.3,6.84H355.06z"/>
		<path class="st0" d="M394.47,366.8h5.02c0,0-0.12-1.87-1.19-3.85c-1.2-2.23-2.91-3.48-5.2-4.14c-2.46-0.71-5.54-0.71-7.98-0.1
			c-1.86,0.47-4.31,1.53-5.71,3.95c-1.86,3.23-1.54,7.45,1.24,10.04c2.4,2.24,6.12,2.47,9.2,3.22c2.24,0.55,4.2,1,4.55,3.21
			c0.14,0.86,0.13,2.02-0.51,2.81c-1.44,1.76-4.87,1.87-6.98,1.68c-1.82-0.16-4.11-0.91-4.34-4.19h-5.32
			c1.13,8.26,8,9.05,14.18,8.45c2.9-0.28,4.66-1.29,6.49-3.04c2.35-2.24,3.22-7.99-0.08-11.16c-0.8-0.77-1.96-1.25-2.98-1.66
			c-2.7-1.07-5.7-1.24-8.2-2.13c-2.09-0.75-3.3-2.18-2.77-4.48c0.34-1.48,1.59-2.18,2.9-2.5c1.31-0.32,2.99-0.33,4.25-0.11
			C392.95,363.14,394.1,364.09,394.47,366.8z"/>
		<path class="st0" d="M197.57,357.95c6.82-0.08,12.6,3.45,12.6,10.55v18.88h-5.39v-6.72v-10.7c0-2.08-0.21-3.51-1.35-4.74
			c-2.55-2.74-7.75-2.72-10.21,0.08c-0.9,1.02-1.3,2.42-1.3,4.65v17.41h-5.57l-0.08-17.1c-0.02-4.31,1.02-7.43,3.38-9.57
			C191.44,359.1,194.05,357.99,197.57,357.95z"/>
		<path class="st0" d="M331.24,357.95c6.88-0.08,12.7,3.45,12.7,10.55v18.88h-5.43v-6.72v-10.7c0-2.08-0.21-3.51-1.36-4.74
			c-2.57-2.74-7.81-2.72-10.3,0.08c-0.91,1.02-1.31,2.42-1.31,4.65v17.41h-5.61l-0.08-17.1c-0.02-4.31,1.03-7.43,3.41-9.57
			C325.06,359.1,327.68,357.99,331.24,357.95z"/>
	</g>
</g>
</svg>
