<svg width="375" height="324" viewBox="0 0 375 324" fill="none" xmlns="http://www.w3.org/2000/svg">
<path fill-rule="evenodd" clip-rule="evenodd" d="M0.16 323.97H374.79L50.19 0.959961H0L0.16 323.97Z" fill="#212061"/>
<path fill-rule="evenodd" clip-rule="evenodd" d="M145.59 323.97H374.79L233.02 182.89C229.41 184.33 225.64 185.95 220.77 188.69C213.34 192.88 202.67 199.92 195.54 206.54C187.1 214.37 183.04 222.3 187.08 234.1C188.44 238.07 190.67 241.67 192.88 244.52C195.09 247.38 197.29 249.49 199.61 252.02C201.93 254.55 204.38 257.49 206.12 260.45C213.62 273.2 206.78 284.56 197.13 293.49C187 302.86 170.95 312.86 158.48 318.83C154.66 320.66 151.61 321.81 148 323.1L145.59 323.97Z" fill="#F9B617"/>
<path fill-rule="evenodd" clip-rule="evenodd" d="M160.13 323.97H374.79L239.48 189.32C233.44 192.5 226.65 197.87 222.13 202.58C215.14 209.87 210.77 217.96 215.61 227.79C216.63 229.87 217.85 231.29 219.33 232.75C224.98 238.38 229.32 238.83 235.29 242.88C240.28 246.27 244.66 251.26 245.51 257.42C246.31 263.3 244.05 269.02 240.51 273.63C238.74 275.94 236.6 278.13 234.15 280.44C231.71 282.75 228.96 285.16 225.32 287.86C221.68 290.55 217.15 293.52 211.02 297.36C198.59 305.16 186.2 312.6 172.81 318.66C168.21 320.75 163.37 322.68 160.13 323.97Z" fill="#006535"/>
<path fill-rule="evenodd" clip-rule="evenodd" d="M16.91 76.27L40.89 87.06L46.58 66.87L55.48 93.41L75.75 102.31L60.67 108.73L68.17 131.89L50.62 113.02L32.57 120.1L38.01 99.09L16.91 76.27Z" fill="white"/>
<path fill-rule="evenodd" clip-rule="evenodd" d="M148.36 134.86L151.66 121.67L154.83 138.07L163.85 142.11L157.05 147.13L159.74 162.96L151.78 151.21L143.26 157.68L146.26 142.98L137.73 130.41L148.36 134.86Z" fill="white"/>
<path fill-rule="evenodd" clip-rule="evenodd" d="M91.96 158.55L107.2 162.3L110.75 147.76L115.2 164.4L128.79 168.27L118.58 175.94L123.27 192.83L112.07 180.72L101.19 189.21L104.86 172.64L91.96 158.55Z" fill="white"/>
<path fill-rule="evenodd" clip-rule="evenodd" d="M56.44 183.15L63.94 202.67L82.32 204.4L68.72 215.28L75.81 232.91L59.9 221.63L44.9 233.16L49.27 213.39L31.06 199.21L51.91 201.27L56.44 183.15Z" fill="white"/>
<path fill-rule="evenodd" clip-rule="evenodd" d="M149.28 210.87L152.04 198.14L155.25 211.82L163.49 212.48L157.31 219.98L159.99 232.96L152.62 224.92L144.29 233.12L147.13 219.11L139.51 210.26L149.28 210.87Z" fill="white"/>
</svg>
