<svg width="400" height="377" viewBox="0 0 400 377" fill="none" xmlns="http://www.w3.org/2000/svg">
<path fill-rule="evenodd" clip-rule="evenodd" d="M0.16 323.93H374.79L50.19 0.920288H0L0.16 323.93Z" fill="#FFFFFF"/>
<path fill-rule="evenodd" clip-rule="evenodd" d="M145.59 323.93H374.79L233.02 182.85C229.41 184.29 225.64 185.91 220.77 188.65C213.34 192.84 202.67 199.88 195.54 206.5C187.1 214.33 183.04 222.26 187.08 234.06C188.44 238.03 190.67 241.63 192.88 244.48C195.09 247.34 197.29 249.45 199.61 251.98C201.93 254.51 204.38 257.45 206.12 260.41C213.62 273.16 206.78 284.52 197.13 293.45C187 302.82 170.95 312.82 158.48 318.79C154.66 320.62 151.61 321.77 148 323.06L145.59 323.93Z" fill="#212061"/>
<path fill-rule="evenodd" clip-rule="evenodd" d="M160.13 323.93H374.79L239.48 189.28C233.44 192.46 226.65 197.83 222.13 202.54C215.14 209.83 210.77 217.92 215.61 227.75C216.63 229.83 217.85 231.25 219.33 232.71C224.98 238.34 229.32 238.79 235.29 242.84C240.28 246.23 244.66 251.22 245.51 257.38C246.31 263.26 244.05 268.98 240.51 273.59C238.74 275.9 236.6 278.09 234.15 280.4C231.71 282.71 228.96 285.12 225.32 287.82C221.68 290.51 217.15 293.48 211.02 297.32C198.59 305.12 186.2 312.56 172.81 318.62C168.21 320.71 163.37 322.64 160.13 323.93Z" fill="#FFFFFF"/>
<path fill-rule="evenodd" clip-rule="evenodd" d="M16.91 76.2303L40.89 87.0203L46.58 66.8303L55.48 93.3703L75.75 102.27L60.67 108.69L68.17 131.85L50.62 112.98L32.57 120.06L38.01 99.0503L16.91 76.2303Z" fill="#212061"/>
<path fill-rule="evenodd" clip-rule="evenodd" d="M148.36 134.82L151.66 121.63L154.83 138.03L163.85 142.07L157.05 147.09L159.74 162.92L151.78 151.17L143.26 157.64L146.26 142.94L137.73 130.37L148.36 134.82Z" fill="#212061"/>
<path fill-rule="evenodd" clip-rule="evenodd" d="M91.96 158.51L107.2 162.26L110.75 147.72L115.2 164.36L128.79 168.23L118.58 175.9L123.27 192.79L112.07 180.68L101.19 189.17L104.86 172.6L91.96 158.51Z" fill="#212061"/>
<path fill-rule="evenodd" clip-rule="evenodd" d="M56.44 183.11L63.94 202.63L82.32 204.36L68.72 215.24L75.81 232.87L59.9 221.59L44.9 233.12L49.27 213.35L31.06 199.17L51.91 201.23L56.44 183.11Z" fill="#212061"/>
<path fill-rule="evenodd" clip-rule="evenodd" d="M149.28 210.83L152.04 198.1L155.25 211.78L163.49 212.44L157.31 219.94L159.99 232.92L152.62 224.88L144.29 233.08L147.13 219.07L139.51 210.22L149.28 210.83Z" fill="#212061"/>
<path d="M71.1 334.7H65.67V376.33H71.1V334.7Z" fill="#FFFFFF"/>
<path d="M300.81 334.7H295.38V376.33H300.81V334.7Z" fill="#FFFFFF"/>
<path fill-rule="evenodd" clip-rule="evenodd" d="M276.69 347.85H281.31L281.68 351.5C282.84 349.9 285.97 346.68 292.12 347.28V352.93C292.12 352.93 286.22 352.19 282.13 355.79V376.33H276.7V347.85H276.69Z" fill="#FFFFFF"/>
<path fill-rule="evenodd" clip-rule="evenodd" d="M264.13 347.85H269.56V376.33H264.13V347.85ZM270.78 339.17C270.8 336.79 269.37 335.28 266.97 335.28C264.57 335.28 263.17 336.73 263.17 339.13C263.17 341.53 264.67 342.98 266.97 342.98C269.28 342.98 270.76 341.55 270.78 339.17Z" fill="#FFFFFF"/>
<path fill-rule="evenodd" clip-rule="evenodd" d="M307.96 347.85H313.39V376.33H307.96V347.85ZM314.61 339.17C314.63 336.79 313.2 335.28 310.8 335.28C308.4 335.28 307 336.73 307 339.13C307 341.53 308.5 342.98 310.8 342.98C313.1 342.98 314.59 341.55 314.61 339.17Z" fill="#FFFFFF"/>
<path fill-rule="evenodd" clip-rule="evenodd" d="M24.68 346.77H29.78C29.34 339.11 25.02 336.37 18.98 335.74C15.26 335.35 11.12 336.01 8.19 337.79C5.42 339.47 3.57 342.06 3.17 345.2C2.93 347.08 2.99 349.49 4.05 351.65C5.56 354.71 8.52 356.57 12.06 357.6C12.06 357.6 20.16 359.63 21.41 360.68C22.66 361.73 25.03 362.67 24.57 366.72C24.28 369.23 22.87 370.52 21.44 371.21C18.41 372.68 12.59 372.79 9.73 370.71C8.31 369.68 7.14 367.99 6.54 365.24H1.31C2.11 372.23 5.47 375.49 11.39 376.57C16.01 377.41 21.97 377.2 25.9 374.29C27.55 373.07 28.8 371.47 29.46 369.66C30.21 367.62 30.33 365.29 30.07 363.39C29.31 357.77 24.89 355.78 20.13 354.31C16.46 353.18 11.1 352.4 9.33 348.86C8.33 346.86 8.58 344.09 10.16 342.46C11.77 340.81 14.77 340.41 16.95 340.42C20.82 340.44 24.17 341.57 24.68 346.77Z" fill="#FFFFFF"/>
<path fill-rule="evenodd" clip-rule="evenodd" d="M60.15 362.01C60.15 356.25 58.7 351.19 54.33 348.75C50.37 346.54 44.14 346.77 40.14 348.83C35.71 351.11 33.83 355.55 33.51 361.51C33.06 369.85 36.77 377.27 46.81 376.99C56.85 376.71 60.15 370.22 60.15 362.01ZM54.47 362.03C54.47 367.72 53 372.45 46.88 372.52C40.77 372.59 38.89 367.3 39.14 361.53C39.32 357.41 40.22 354.58 42.75 353.01C45.03 351.59 49.17 351.35 51.43 352.88C53.92 354.56 54.47 358.04 54.47 362.03Z" fill="#FFFFFF"/>
<path fill-rule="evenodd" clip-rule="evenodd" d="M103.07 362.01C103.07 356.25 101.62 351.19 97.25 348.75C93.29 346.54 87.06 346.77 83.06 348.83C78.63 351.11 76.75 355.55 76.43 361.51C75.98 369.85 79.69 377.27 89.73 376.99C99.77 376.71 103.07 370.22 103.07 362.01ZM97.4 362.03C97.4 367.72 95.93 372.45 89.81 372.52C83.7 372.59 81.82 367.3 82.07 361.53C82.25 357.41 83.15 354.58 85.68 353.01C87.96 351.59 92.1 351.35 94.36 352.88C96.84 354.56 97.4 358.04 97.4 362.03Z" fill="#FFFFFF"/>
<path fill-rule="evenodd" clip-rule="evenodd" d="M180.89 362.01C180.89 356.25 179.44 351.19 175.07 348.75C171.11 346.54 164.88 346.77 160.88 348.83C156.45 351.11 154.57 355.55 154.25 361.51C153.8 369.85 157.51 377.27 167.55 376.99C177.59 376.71 180.89 370.22 180.89 362.01ZM175.21 362.03C175.21 367.72 173.74 372.45 167.62 372.52C161.51 372.59 159.63 367.3 159.88 361.53C160.06 357.41 160.96 354.58 163.49 353.01C165.77 351.59 169.91 351.35 172.17 352.88C174.65 354.56 175.21 358.04 175.21 362.03Z" fill="#FFFFFF"/>
<path fill-rule="evenodd" clip-rule="evenodd" d="M125.81 376.34V358.92C125.81 357.28 125.66 356.13 125.14 355.15C123.96 352.93 121.5 352.08 118.95 352.11C115.77 352.15 112.89 354.42 112.89 358.92V376.34H107.4V357.46C107.4 350.52 112.75 346.98 118.64 346.91C122.67 346.86 126.34 348.08 128.66 350.54C130.77 348.16 134.02 346.94 137.45 346.91C144.27 346.83 150.05 350.36 150.05 357.46V376.34H144.66V358.92C144.66 357.28 144.47 356.13 143.95 355.15C142.77 352.93 140.45 351.94 137.91 352.15C136.3 352.28 134.32 352.88 133.1 354.27C132.2 355.29 131.8 356.69 131.8 358.92V376.33C129.81 376.34 127.81 376.34 125.81 376.34Z" fill="#FFFFFF"/>
<path fill-rule="evenodd" clip-rule="evenodd" d="M259.39 376.34L245.6 336.42H238.59L225.13 376.34H230.76C232.04 372.42 233.3 368.5 234.57 364.58H249.47C250.75 368.48 252.04 372.38 253.36 376.34H259.39ZM236.09 359.85C238 353.95 239.93 348.04 241.94 342.11C244.05 348.24 245.99 354.08 247.9 359.85H236.09Z" fill="#FFFFFF"/>
<path fill-rule="evenodd" clip-rule="evenodd" d="M364.51 347.33C362.05 346.95 359.16 347.25 356.09 348.82C351.66 351.1 349.62 354.76 349.3 361.26C348.89 369.61 352.72 377.25 362.76 376.98C369.96 376.78 372.89 373.29 373.98 368.3H368.78C368.4 370.69 367.55 372.3 362.86 372.36C358.16 372.42 355.53 370.25 355.01 363.44C361.54 363.44 367.39 363.44 373.92 363.44C374.67 354.97 373.19 348.68 364.51 347.33ZM355.06 359.15C355.39 356.34 356.31 354.14 358.32 352.88C360.88 351.28 363.6 351.59 365.29 352.31C367.68 353.33 368.49 356.11 368.59 359.15H355.06Z" fill="#FFFFFF"/>
<path fill-rule="evenodd" clip-rule="evenodd" d="M394.47 355.76H399.49C399.49 355.76 399.37 353.89 398.3 351.91C397.1 349.68 395.39 348.43 393.1 347.77C390.64 347.06 387.56 347.06 385.12 347.67C383.26 348.14 380.81 349.2 379.41 351.62C377.55 354.85 377.87 359.07 380.65 361.66C383.05 363.9 386.77 364.13 389.85 364.88C392.09 365.43 394.05 365.88 394.4 368.09C394.54 368.95 394.53 370.11 393.89 370.9C392.45 372.66 389.02 372.77 386.91 372.58C385.09 372.42 382.8 371.67 382.57 368.39H377.25C378.38 376.65 385.25 377.44 391.43 376.84C394.33 376.56 396.09 375.55 397.92 373.8C400.27 371.56 401.14 365.81 397.84 362.64C397.04 361.87 395.88 361.39 394.86 360.98C392.16 359.91 389.16 359.74 386.66 358.85C384.57 358.1 383.36 356.67 383.89 354.37C384.23 352.89 385.48 352.19 386.79 351.87C388.1 351.55 389.78 351.54 391.04 351.76C392.95 352.1 394.1 353.05 394.47 355.76Z" fill="#FFFFFF"/>
<path fill-rule="evenodd" clip-rule="evenodd" d="M197.57 346.91C204.39 346.83 210.17 350.36 210.17 357.46V376.34H204.78V358.92C204.78 356.84 204.57 355.41 203.43 354.18C200.88 351.44 195.68 351.46 193.22 354.26C192.32 355.28 191.92 356.68 191.92 358.91V376.32H186.35L186.27 359.22C186.25 354.91 187.29 351.79 189.65 349.65C191.44 348.06 194.05 346.95 197.57 346.91Z" fill="#FFFFFF"/>
<path fill-rule="evenodd" clip-rule="evenodd" d="M331.24 346.91C338.12 346.83 343.94 350.36 343.94 357.46V376.34H338.51V358.92C338.51 356.84 338.3 355.41 337.15 354.18C334.58 351.44 329.34 351.46 326.85 354.26C325.94 355.28 325.54 356.68 325.54 358.91V376.32H319.93L319.85 359.22C319.83 354.91 320.88 351.79 323.26 349.65C325.06 348.06 327.68 346.95 331.24 346.91Z" fill="#FFFFFF"/>
</svg>
